<?xml version="1.0" encoding="UTF-8" standalone="no"?><!DOCTYPE svg PUBLIC "-//W3C//DTD SVG 1.1//EN" "http://www.w3.org/Graphics/SVG/1.1/DTD/svg11.dtd"><svg height="100%" stroke-miterlimit="10" style="fill-rule:nonzero;clip-rule:evenodd;stroke-linecap:round;stroke-linejoin:round" version="1.1" viewBox="0 0 24 24" width="100%" xml:space="preserve" xmlns="http://www.w3.org/2000/svg" xmlns:vectornator="http://vectornator.io" xmlns:xlink="http://www.w3.org/1999/xlink"><defs><linearGradient gradientTransform="matrix(1 0 0 1 0 0)" gradientUnits="userSpaceOnUse" id="LinearGradient" x1="20.6556" x2="0" y1="-0.539313" y2="24"><stop offset="0" stop-color="#383939"/><stop offset="0.981621" stop-color="#050505"/></linearGradient><clipPath id="TextBounds"><rect height="19" width="16.1454" x="6.62077" y="6.5481"/></clipPath><linearGradient gradientTransform="matrix(1 0 0 1 0 0)" gradientUnits="userSpaceOnUse" id="LinearGradient_2" x1="8.51872" x2="21.9108" y1="18.9145" y2="8.63067"><stop offset="0.0180848" stop-color="#3e3f3f"/><stop offset="0.997367" stop-color="#687375"/></linearGradient><clipPath id="TextBounds_2"><rect height="30" width="15.108" x="0" y="-4.23568"/></clipPath><linearGradient gradientTransform="matrix(1 0 0 1 0 0)" gradientUnits="userSpaceOnUse" id="LinearGradient_3" x1="8.43458" x2="13.8632" y1="19.1472" y2="4.26214"><stop offset="0.0180848" stop-color="#3e3f3f"/><stop offset="0.997367" stop-color="#687375"/></linearGradient></defs><clipPath id="ArtboardFrame"><rect height="24" width="24" x="0" y="0"/></clipPath><g clip-path="url(#ArtboardFrame)" id="layout-1" vectornator:layerName="layout-1"><path d="M13.9025 2.89559L21.1701 10.1872C22.2012 11.2218 22.1984 12.8963 21.1639 13.9275L13.8721 21.1953C12.8375 22.2264 11.1629 22.2237 10.1318 21.1891L2.8642 13.8975C1.83305 12.8629 1.83581 11.1884 2.87037 10.1572L10.1622 2.88942C11.1967 1.85828 12.8713 1.86104 13.9025 2.89559Z" fill="#000000" fill-rule="nonzero" opacity="0" stroke="none"/><path d="M0 0L24 0L24 24L0 24L0 0Z" fill="url(#LinearGradient)" fill-rule="nonzero" opacity="0" stroke="none"/><path d="M2 12C2 6.47715 6.47715 2 12 2C17.5228 2 22 6.47715 22 12C22 17.5228 17.5228 22 12 22C6.47715 22 2 17.5228 2 12Z" fill="#000000" fill-rule="nonzero" opacity="0" stroke="none"/><path d="M0.0171259 0.0423528L24.0171 0.0423528L24.0171 24.0424L0.0171259 24.0424L0.0171259 0.0423528Z" fill="#ffffff" fill-rule="nonzero" opacity="0" stroke="none"/><path clip-path="url(#TextBounds)" d="M15.1048 12.5497C15.124 12.6649 15.1456 12.8161 15.1696 13.0033C15.1936 13.1905 15.2056 13.3849 15.2056 13.5865C15.2056 14.0281 15.1432 14.4529 15.0184 14.8609C14.8936 15.2689 14.704 15.6289 14.4496 15.9409C14.1952 16.2529 13.8808 16.5001 13.5064 16.6825C13.132 16.8649 12.6952 16.9561 12.196 16.9561C11.8312 16.9561 11.5048 16.8961 11.2168 16.7761C10.9288 16.6561 10.6864 16.4881 10.4896 16.2721C10.2928 16.0561 10.1416 15.7993 10.036 15.5017C9.93037 15.2041 9.87757 14.8777 9.87757 14.5225C9.87757 13.9945 9.98797 13.4953 10.2088 13.0249C10.4296 12.5545 10.7272 12.1225 11.1016 11.7289C11.476 11.3353 11.9104 10.9777 12.4048 10.6561C12.8992 10.3345 13.42 10.0633 13.9672 9.8425C14.5144 9.6217 15.0736 9.4513 15.6448 9.3313C16.216 9.2113 16.7608 9.1513 17.2792 9.1513C17.9224 9.1513 18.5224 9.2089 19.0792 9.3241C19.636 9.4393 20.1832 9.6073 20.7208 9.8281C21.0952 9.6649 21.4768 9.5161 21.8656 9.3817C22.2544 9.2473 22.6552 9.1705 23.068 9.1513L23.0968 9.2377C22.9624 9.2377 22.7992 9.2617 22.6072 9.3097C22.4152 9.3577 22.2208 9.4201 22.024 9.4969C21.8272 9.5737 21.6424 9.6577 21.4696 9.7489C21.2968 9.8401 21.1672 9.9289 21.0808 10.0153C21.4456 10.2265 21.7384 10.4977 21.9592 10.8289C22.18 11.1601 22.2904 11.5417 22.2904 11.9737C22.2904 12.3865 22.1872 12.7393 21.9808 13.0321C21.7744 13.3249 21.5152 13.5697 21.2032 13.7665C20.8912 13.9633 20.5504 14.1169 20.1808 14.2273C19.8112 14.3377 19.4584 14.4217 19.1224 14.4793L19.108 14.5081C19.4056 14.5465 19.696 14.5921 19.9792 14.6449C20.2624 14.6977 20.5168 14.7865 20.7424 14.9113C20.968 15.0361 21.148 15.2113 21.2824 15.4369C21.4168 15.6625 21.484 15.9625 21.484 16.3369C21.484 16.8649 21.3712 17.3425 21.1456 17.7697C20.92 18.1969 20.62 18.5593 20.2456 18.8569C19.8712 19.1545 19.4488 19.3825 18.9784 19.5409C18.508 19.6993 18.028 19.7785 17.5384 19.7785C17.3368 19.7785 17.1304 19.7521 16.9192 19.6993C16.708 19.6465 16.5184 19.5673 16.3504 19.4617C16.1824 19.3561 16.0432 19.2217 15.9328 19.0585C15.8224 18.8953 15.7672 18.7033 15.7672 18.4825C15.7672 18.2329 15.8536 18.0169 16.0264 17.8345C16.1992 17.6521 16.4104 17.5609 16.66 17.5609C16.948 17.5609 17.2024 17.6569 17.4232 17.8489C17.2312 17.9641 17.0896 18.1081 16.9984 18.2809C16.9072 18.4537 16.8616 18.6457 16.8616 18.8569C16.8616 19.1065 16.9288 19.2937 17.0632 19.4185C17.1976 19.5433 17.3896 19.6057 17.6392 19.6057C18.0136 19.6057 18.3544 19.5025 18.6616 19.2961C18.9688 19.0897 19.228 18.8305 19.4392 18.5185C19.6504 18.2065 19.8136 17.8633 19.9288 17.4889C20.044 17.1145 20.1016 16.7593 20.1016 16.4233C20.1016 15.7897 19.936 15.3265 19.6048 15.0337C19.2736 14.7409 18.7624 14.5945 18.0712 14.5945L18.0856 14.4793C18.4408 14.4601 18.7912 14.3953 19.1368 14.2849C19.4824 14.1745 19.792 14.0161 20.0656 13.8097C20.3392 13.6033 20.5624 13.3441 20.7352 13.0321C20.908 12.7201 20.9944 12.3481 20.9944 11.9161C20.9944 11.6473 20.9464 11.3905 20.8504 11.1457C20.7544 10.9009 20.6008 10.6873 20.3896 10.5049C19.9096 10.8889 19.4776 11.3833 19.0936 11.9881C18.7096 12.5929 18.328 13.2385 17.9488 13.9249C17.5696 14.6113 17.1736 15.3025 16.7608 15.9985C16.348 16.6945 15.8752 17.3233 15.3424 17.8849C14.8096 18.4465 14.1928 18.9025 13.492 19.2529C12.7912 19.6033 11.9656 19.7785 11.0152 19.7785C10.708 19.7785 10.408 19.7377 10.1152 19.6561C9.82237 19.5745 9.56077 19.4545 9.33037 19.2961C9.09997 19.1377 8.91277 18.9433 8.76877 18.7129C8.62477 18.4825 8.55277 18.2185 8.55277 17.9209C8.55277 17.6425 8.62717 17.4025 8.77597 17.2009C8.92477 16.9993 9.15277 16.8985 9.45997 16.8985C9.68077 16.8985 9.85597 16.9657 9.98557 17.1001C10.1152 17.2345 10.18 17.4025 10.18 17.6041C10.18 17.7865 10.1224 17.9401 10.0072 18.0649C9.89197 18.1897 9.77677 18.2617 9.66157 18.2809C9.65197 18.3193 9.64717 18.3769 9.64717 18.4537C9.64717 18.8473 9.77437 19.1377 10.0288 19.3249C10.2832 19.5121 10.6552 19.6057 11.1448 19.6057C11.7976 19.6057 12.3712 19.4281 12.8656 19.0729C13.36 18.7177 13.8136 18.2545 14.2264 17.6833C14.6392 17.1121 15.0376 16.4737 15.4216 15.7681C15.8056 15.0625 16.216 14.3617 16.6528 13.6657C17.0896 12.9697 17.5768 12.3121 18.1144 11.6929C18.652 11.0737 19.2808 10.5721 20.0008 10.1881C19.6168 9.8905 19.1752 9.6721 18.676 9.5329C18.1768 9.3937 17.6824 9.3241 17.1928 9.3241C16.5112 9.3241 15.8056 9.4441 15.076 9.6841C14.3464 9.9241 13.6816 10.2721 13.0816 10.7281C12.4816 11.1841 11.9896 11.7361 11.6056 12.3841C11.2216 13.0321 11.0296 13.7641 11.0296 14.5801C11.0296 14.8105 11.0608 15.0505 11.1232 15.3001C11.1856 15.5497 11.284 15.7777 11.4184 15.9841C11.5528 16.1905 11.7208 16.3609 11.9224 16.4953C12.124 16.6297 12.3592 16.6969 12.628 16.6969C13.0024 16.6969 13.336 16.6129 13.6288 16.4449C13.9216 16.2769 14.1736 16.0513 14.3848 15.7681C14.596 15.4849 14.7568 15.1585 14.8672 14.7889C14.9776 14.4193 15.0328 14.0377 15.0328 13.6441C15.0328 13.4137 15.0232 13.2145 15.004 13.0465C14.9848 12.8785 14.9656 12.7177 14.9464 12.5641L15.1048 12.5497Z" fill="url(#LinearGradient_2)" opacity="1" stroke="none"/><path clip-path="url(#TextBounds_2)" d="M15.108 12.6253C14.954 12.8773 14.7755 13.1433 14.5725 13.4233C14.3695 13.7033 14.142 13.9553 13.89 14.1793C13.638 14.4033 13.3685 14.5888 13.0815 14.7358C12.7945 14.8828 12.49 14.9563 12.168 14.9563C11.818 14.9563 11.461 14.8513 11.097 14.6413C10.845 14.5013 10.6175 14.2913 10.4145 14.0113C10.2115 13.7313 10.0295 13.4373 9.8685 13.1293C9.7075 12.8213 9.5605 12.5203 9.4275 12.2263C9.2945 11.9323 9.179 11.7013 9.081 11.5333C8.759 11.6453 8.4405 11.7293 8.1255 11.7853C7.8105 11.8413 7.492 11.8693 7.17 11.8693C6.708 11.8693 6.2425 11.8133 5.7735 11.7013C5.3045 11.5893 4.902 11.3723 4.566 11.0503C4.3 11.2323 4.034 11.4563 3.768 11.7223C3.502 11.9883 3.271 12.2543 3.075 12.5203C3.005 12.5203 2.97 12.4713 2.97 12.3733C3.208 12.0933 3.4495 11.8343 3.6945 11.5963C3.9395 11.3583 4.195 11.1413 4.461 10.9453C4.013 10.4553 3.789 9.84632 3.789 9.11832C3.789 8.67032 3.8765 8.20482 4.0515 7.72182C4.2265 7.23882 4.4505 6.76632 4.7235 6.30432C4.9965 5.84232 5.294 5.40482 5.616 4.99182C5.938 4.57882 6.253 4.22532 6.561 3.93132C7.065 3.44132 7.6355 3.06682 8.2725 2.80782C8.9095 2.54882 9.564 2.41932 10.236 2.41932C10.306 2.41932 10.3515 2.43332 10.3725 2.46132C10.3935 2.48932 10.404 2.51732 10.404 2.54532C10.404 2.58732 10.39 2.60832 10.362 2.60832C10.292 2.59432 10.229 2.58732 10.173 2.58732C10.117 2.58732 10.068 2.58732 10.026 2.58732C9.69 2.58732 9.354 2.66782 9.018 2.82882C8.682 2.98982 8.367 3.19282 8.073 3.43782C7.779 3.68282 7.513 3.94182 7.275 4.21482C7.037 4.48782 6.834 4.72932 6.666 4.93932C6.47 5.20532 6.2635 5.51332 6.0465 5.86332C5.8295 6.21332 5.63 6.58082 5.448 6.96582C5.266 7.35082 5.1155 7.75682 4.9965 8.18382C4.8775 8.61082 4.818 9.04132 4.818 9.47532C4.818 9.83932 4.888 10.1963 5.028 10.5463C5.504 10.2243 5.959 10.0108 6.393 9.90582C6.827 9.80082 7.184 9.74832 7.464 9.74832C7.618 9.74832 7.7825 9.75882 7.9575 9.77982C8.1325 9.80082 8.318 9.85332 8.514 9.93732C8.71 10.0213 8.913 10.1508 9.123 10.3258C9.333 10.5008 9.543 10.7423 9.753 11.0503C10.257 10.7983 10.719 10.4518 11.139 10.0108C11.559 9.56982 11.9195 9.08682 12.2205 8.56182C12.5215 8.03682 12.756 7.49432 12.924 6.93432C13.092 6.37432 13.176 5.84932 13.176 5.35932C13.176 4.91132 13.1235 4.49482 13.0185 4.10982C12.9135 3.72482 12.756 3.40632 12.546 3.15432C12.434 3.02832 12.3045 2.91982 12.1575 2.82882C12.0105 2.73782 11.874 2.67832 11.748 2.65032C11.678 2.62232 11.643 2.60132 11.643 2.58732C11.643 2.55932 11.678 2.54532 11.748 2.54532C11.86 2.54532 11.993 2.54882 12.147 2.55582C12.301 2.56282 12.441 2.56632 12.567 2.56632C12.651 2.56632 12.7455 2.57682 12.8505 2.59782C12.9555 2.61882 13.05 2.66432 13.134 2.73432C13.344 2.90232 13.547 3.15082 13.743 3.47982C13.939 3.80882 14.037 4.27432 14.037 4.87632C14.037 5.29632 13.96 5.78982 13.806 6.35682C13.652 6.92382 13.407 7.50132 13.071 8.08932C12.735 8.67732 12.3045 9.24432 11.7795 9.79032C11.2545 10.3363 10.614 10.7983 9.858 11.1763C9.942 11.3023 10.04 11.4668 10.152 11.6698C10.264 11.8728 10.39 12.0898 10.53 12.3208C10.67 12.5518 10.824 12.7863 10.992 13.0243C11.16 13.2623 11.335 13.4863 11.517 13.6963C11.923 14.1583 12.343 14.3893 12.777 14.3893C12.861 14.3893 12.98 14.3753 13.134 14.3473C13.288 14.3193 13.4595 14.2458 13.6485 14.1268C13.8375 14.0078 14.044 13.8223 14.268 13.5703C14.492 13.3183 14.716 12.9683 14.94 12.5203C14.968 12.4783 15.003 12.4713 15.045 12.4993C15.087 12.5273 15.108 12.5693 15.108 12.6253ZM8.997 11.3863C8.899 11.2323 8.7975 11.0748 8.6925 10.9138C8.5875 10.7528 8.4615 10.6058 8.3145 10.4728C8.1675 10.3398 7.9925 10.2313 7.7895 10.1473C7.5865 10.0633 7.338 10.0213 7.044 10.0213C6.694 10.0213 6.358 10.0808 6.036 10.1998C5.714 10.3188 5.399 10.4763 5.091 10.6723C5.329 11.0643 5.665 11.3303 6.099 11.4703C6.533 11.6103 6.96 11.6803 7.38 11.6803C7.912 11.6803 8.451 11.5823 8.997 11.3863Z" fill="url(#LinearGradient_3)" opacity="1" stroke="none"/></g></svg>