<svg
    viewBox="0 0 32 32"
    xmlns="http://www.w3.org/2000/svg"
  >
    <defs>
      <linearGradient id="linear-1"  gradientTransform="matrix(1 0 0 1 0 0)" x1="28.813" x2="6.77348" y1="11.0041" y2="27.3202">
        <stop offset="0.0151573" stop-color="#5d5c5c" />
        <stop offset="0.985449" stop-color="#373737" />
      </linearGradient>
      <linearGradient id="linear-2"  gradientTransform="matrix(0.731049 0 0 0.731049 4.09376 1.0062)" x1="25.7174" x2="15.1069" y1="19.8346" y2="29.9626">
        <stop offset="0.0151573" stop-color="#5d5c5c" />
        <stop offset="0.985449" stop-color="#373737" />
      </linearGradient>
    </defs>
    <g>
      <path fill="url(#linear-1)" d="M27.562 26.0571L17.17 8.98507L19.536 5.09706L17.828 4.05706L16 7.06206L14.17 4.05706L12.462 5.09706L14.828 8.98506L4.438 26.0571L2 26.0571L2 28.0571L30 28.0571L30 26.0571L27.562 26.0571ZM16 10.9071L25.22 26.0571L17 26.0571L17 23.0302L15 23.0231L15 26.0571L6.78 26.0571L16 10.9071Z" stroke="none" />
      <path fill="url(#linear-2)" d="M16.6762 18.7268C17.3488 18.5733 17.7874 18.1931 17.7874 17.4621C17.7874 16.4167 17.0125 16 15.8501 16L13.9494 16L13.9494 21.7022L15.9671 21.7022C17.188 21.7022 18.0506 21.1978 18.0506 20.0354C18.0506 19.1362 17.3926 18.8145 16.6762 18.7634L16.6762 18.7268ZM15.7112 16.9504C16.1426 16.9504 16.4715 17.1624 16.4715 17.6522C16.4715 18.1566 16.1279 18.3686 15.7112 18.3686L15.2287 18.3686L15.2287 16.9504L15.7112 16.9504ZM15.2287 20.7153L15.2287 19.319L15.9452 19.319C16.4277 19.319 16.7493 19.5456 16.7493 20.0061C16.7493 20.5325 16.4277 20.7153 15.9379 20.7153L15.2287 20.7153Z"  stroke="none" />
    </g>
  </svg>
