<?xml version="1.0" encoding="UTF-8" standalone="no"?>
<!DOCTYPE svg PUBLIC "-//W3C//DTD SVG 1.1//EN" "http://www.w3.org/Graphics/SVG/1.1/DTD/svg11.dtd">
<!-- Created with Vectornator (http://vectornator.io/) -->
<svg height="100%" stroke-miterlimit="10" style="fill-rule:nonzero;clip-rule:evenodd;stroke-linecap:round;stroke-linejoin:round;" version="1.1" viewBox="0 0 24 24" width="100%" xml:space="preserve" xmlns="http://www.w3.org/2000/svg" xmlns:vectornator="http://vectornator.io" xmlns:xlink="http://www.w3.org/1999/xlink">
<defs/>
<g id="Untitled" vectornator:layerName="Untitled">
<path d="M13.896 2.79058L21.1636 10.0822C22.1947 11.1168 22.192 12.7913 21.1574 13.8225L13.8656 21.0903C12.8311 22.1214 11.1565 22.1186 10.1253 21.0841L2.85773 13.7925C1.82659 12.7579 1.82935 11.0834 2.8639 10.0522L10.1557 2.78441C11.1903 1.75326 12.8649 1.75602 13.896 2.79058Z" fill="#cecece" fill-rule="nonzero" opacity="0" stroke="none"/>
<path d="M11.4176 18.3356C11.4168 18.7945 10.4955 18.6129 10.1459 18.2622L5.20398 13.3039C4.5028 12.6004 4.50468 11.4617 5.20818 10.7605L8.03065 7.94732L10.1666 5.81838C10.5261 5.46008 11.4389 5.41568 11.4381 5.8861" fill="#a1a1a1" fill-rule="nonzero" opacity="0" stroke="none"/>
<path d="M12.8782 5.82027C12.8782 5.36136 13.7998 5.54135 14.15 5.89148L19.1005 10.8412C19.8029 11.5435 19.803 12.6822 19.1007 13.3846L16.283 16.2027L14.1508 18.3353C13.7919 18.6942 12.8792 18.7402 12.8791 18.2698" fill="#a1a1a1" fill-rule="nonzero" opacity="0" stroke="none"/>
<path d="M11.4337 13.0164L7.26072 8.66573L8.36949 7.60226L11.4355 10.7988" fill="#cecece" fill-rule="nonzero" opacity="0" stroke="none"/>
<path d="M12.8678 10.609L15.9069 7.61418L16.9852 8.70849L12.8674 12.7663" fill="#cecece" fill-rule="nonzero" opacity="0" stroke="none"/>
<path d="M13.8896 2.94615L21.1572 10.2378C22.1883 11.2723 22.1855 12.9469 21.151 13.9781L13.8592 21.2459C12.8246 22.277 11.15 22.2742 10.1189 21.2397L2.85128 13.9481C1.82013 12.9135 1.82289 11.2389 2.85745 10.2078L10.1493 2.93998C11.1838 1.90884 12.8584 1.9116 13.8896 2.94615Z" fill="#cecece" fill-rule="nonzero" opacity="0" stroke="none"/>
<path d="M11.07 10.2471C11.5024 10.7136 7.03788 6.3442 7.03788 6.3442L9.39098 3.94857C9.86754 3.47355 11.0777 3.41469 11.0767 4.03835" fill="#aaaaaa" fill-rule="nonzero" opacity="1" stroke="none"/>
<path d="M12.9883 13.1767C12.0029 14.1369 19.2673 7.07514 18.4329 7.78562L21.2352 10.6077C22.1664 11.5388 22.1665 13.0484 21.2354 13.9797L17.4999 17.7157L14.6731 20.543C14.1973 21.0189 12.9872 21.0799 12.9871 20.4562" fill="#aaaaaa" fill-rule="nonzero" opacity="1" stroke="none"/>
<path d="M11.0428 20.5565C11.0418 21.1649 9.82036 20.9242 9.35687 20.4592L2.805 13.8857C1.8754 12.953 1.87789 11.4434 2.81056 10.5137L5.59118 7.78562C4.75211 7.13406 11.5996 13.7566 11.07 13.1767" fill="#aaaaaa" fill-rule="nonzero" opacity="1" stroke="none"/>
<path d="M12.9883 3.94918C12.9883 3.34077 14.2101 3.5794 14.6744 4.04359L16.9623 6.3442C16.4865 6.82009 12.3228 10.8715 12.9883 10.2471" fill="#aaaaaa" fill-rule="nonzero" opacity="1" stroke="none"/>
<path d="M12 9C10.3431 9 9 10.3431 9 12C9 13.6569 10.3431 15 12 15C13.6569 15 15 13.6569 15 12C15 10.3431 13.6569 9 12 9ZM12 7C14.7614 7 17 9.23858 17 12C17 14.7614 14.7614 17 12 17C9.23858 17 7 14.7614 7 12C7 9.23858 9.23858 7 12 7ZM18.5 6.75C18.5 7.44036 17.9404 8 17.25 8C16.5596 8 16 7.44036 16 6.75C16 6.05964 16.5596 5.5 17.25 5.5C17.9404 5.5 18.5 6.05964 18.5 6.75ZM12 4C9.526 4 9.122 4.007 7.971 4.058C7.187 4.095 6.661 4.2 6.173 4.39C5.76462 4.53994 5.39541 4.78026 5.093 5.093C4.78001 5.3954 4.53935 5.76458 4.389 6.173C4.199 6.663 4.094 7.188 4.058 7.971C4.006 9.075 4 9.461 4 12C4 14.474 4.007 14.878 4.058 16.029C4.095 16.812 4.2 17.339 4.389 17.826C4.559 18.261 4.759 18.574 5.091 18.906C5.428 19.242 5.741 19.443 6.171 19.609C6.665 19.8 7.191 19.906 7.971 19.942C9.075 19.994 9.461 20 12 20C14.474 20 14.878 19.993 16.029 19.942C16.811 19.905 17.338 19.8 17.826 19.611C18.2338 19.4603 18.6027 19.2205 18.906 18.909C19.243 18.572 19.444 18.259 19.61 17.829C19.8 17.336 19.906 16.809 19.942 16.029C19.994 14.925 20 14.539 20 12C20 9.526 19.993 9.122 19.942 7.971C19.905 7.189 19.8 6.661 19.61 6.173C19.4593 5.765 19.2191 5.39596 18.907 5.093C18.6047 4.77985 18.2355 4.53917 17.827 4.389C17.337 4.199 16.811 4.094 16.029 4.058C14.925 4.006 14.539 4 12 4ZM12 2C14.717 2 15.056 2.01 16.122 2.06C17.187 2.11 17.912 2.277 18.55 2.525C19.21 2.779 19.766 3.123 20.322 3.678C20.8305 4.1779 21.224 4.78259 21.475 5.45C21.722 6.087 21.89 6.813 21.94 7.878C21.987 8.944 22 9.283 22 12C22 14.717 21.99 15.056 21.94 16.122C21.89 17.187 21.722 17.912 21.475 18.55C21.2247 19.2178 20.8311 19.8226 20.322 20.322C19.822 20.8303 19.2173 21.2238 18.55 21.475C17.913 21.722 17.187 21.89 16.122 21.94C15.056 21.987 14.717 22 12 22C9.283 22 8.944 21.99 7.878 21.94C6.813 21.89 6.088 21.722 5.45 21.475C4.78233 21.2245 4.17753 20.8309 3.678 20.322C3.16941 19.8222 2.77593 19.2175 2.525 18.55C2.277 17.913 2.11 17.187 2.06 16.122C2.013 15.056 2 14.717 2 12C2 9.283 2.01 8.944 2.06 7.878C2.11 6.812 2.277 6.088 2.525 5.45C2.77524 4.78218 3.1688 4.17732 3.678 3.678C4.17767 3.16923 4.78243 2.77573 5.45 2.525C6.088 2.277 6.812 2.11 7.878 2.06C8.944 2.013 9.283 2 12 2Z" fill="#aaaaaa" fill-rule="nonzero" opacity="0" stroke="none"/>
</g>
</svg>
