<?xml version="1.0" encoding="UTF-8" standalone="no"?>
<!DOCTYPE svg PUBLIC "-//W3C//DTD SVG 1.1//EN" "http://www.w3.org/Graphics/SVG/1.1/DTD/svg11.dtd">
<svg height="100%" stroke-miterlimit="10" style="fill-rule:nonzero;clip-rule:evenodd;stroke-linecap:round;stroke-linejoin:round;" version="1.1" viewBox="0 0 24 24" width="100%" xml:space="preserve" xmlns="http://www.w3.org/2000/svg" xmlns:vectornator="http://vectornator.io" xmlns:xlink="http://www.w3.org/1999/xlink">
<defs>
<clipPath id="TextBounds">
<rect height="29" width="25" x="-1.09278" y="-1.28448"/>
</clipPath>
<clipPath id="TextBounds_2">
<rect height="33.983" width="20.034" x="-2.28472" y="-6.2639"/>
</clipPath>
</defs>
<path d="M3.42658 10.1597L10.2809 3.14792C11.47 1.93148 13.4201 1.90932 14.6365 3.09843L21.7296 10.0322C22.946 11.2213 22.9682 13.1714 21.7791 14.3878L14.9248 21.3996C13.7357 22.6161 11.7856 22.6382 10.5692 21.4491L3.47607 14.5154C2.25963 13.3263 2.23747 11.3762 3.42658 10.1597Z" fill="#ffffff" fill-rule="nonzero" opacity="0" stroke="none"/>
<path clip-path="url(#TextBounds)" d="M23.0452 3.87552C22.4732 3.84618 21.9049 3.88285 21.3402 3.98552C20.7756 4.08818 20.2586 4.32285 19.7892 4.68952C20.5226 5.04152 21.1276 5.48885 21.6042 6.03152C22.0809 6.57418 22.3192 7.28552 22.3192 8.16552C22.3192 8.82552 22.1469 9.38285 21.8022 9.83752C21.4576 10.2922 21.0286 10.6662 20.5152 10.9595C20.0019 11.2529 19.4482 11.4729 18.8542 11.6195C18.2602 11.7662 17.7139 11.8542 17.2152 11.8835L17.2152 11.9275C18.5499 11.9569 19.5729 12.2355 20.2842 12.7635C20.9956 13.2915 21.3512 14.0615 21.3512 15.0735C21.3512 15.8069 21.1459 16.4779 20.7352 17.0865C20.3246 17.6952 19.7929 18.2195 19.1402 18.6595C18.4876 19.0995 17.7579 19.4442 16.9512 19.6935C16.1446 19.9429 15.3379 20.0675 14.5312 20.0675C14.2232 20.0675 13.9006 20.0309 13.5632 19.9575C13.2259 19.8842 12.9216 19.7632 12.6502 19.5945C12.3789 19.4259 12.1552 19.2095 11.9792 18.9455C11.8032 18.6815 11.7152 18.3589 11.7152 17.9775C11.7152 17.4789 11.8656 17.0792 12.1662 16.7785C12.4669 16.4779 12.8666 16.3275 13.3652 16.3275C13.6879 16.3275 13.9739 16.3935 14.2232 16.5255C14.4726 16.6575 14.6632 16.8042 14.7952 16.9655C14.5459 17.1855 14.3076 17.4569 14.0802 17.7795C13.8529 18.1022 13.7392 18.4469 13.7392 18.8135C13.7392 19.1069 13.8309 19.3305 14.0142 19.4845C14.1976 19.6385 14.4432 19.7155 14.7512 19.7155C15.2059 19.7155 15.6496 19.5652 16.0822 19.2645C16.5149 18.9639 16.8999 18.5789 17.2372 18.1095C17.5746 17.6402 17.8459 17.1122 18.0512 16.5255C18.2566 15.9389 18.3592 15.3595 18.3592 14.7875C18.3592 14.2302 18.2676 13.7682 18.0842 13.4015C17.9009 13.0349 17.6552 12.7489 17.3472 12.5435C17.0392 12.3382 16.6946 12.2062 16.3132 12.1475C15.9319 12.0889 15.5432 12.0962 15.1472 12.1695L15.2352 11.9715C16.6139 11.7515 17.6992 11.2639 18.4912 10.5085C19.2832 9.75318 19.6792 8.76685 19.6792 7.54952C19.6792 7.13885 19.6169 6.76118 19.4922 6.41652C19.3676 6.07185 19.1586 5.75285 18.8652 5.45952C17.9852 6.33952 17.2299 7.31118 16.5992 8.37452C15.9686 9.43785 15.3636 10.5049 14.7842 11.5755C14.2049 12.6462 13.6182 13.6802 13.0242 14.6775C12.4302 15.6749 11.7336 16.5585 10.9342 17.3285C10.1349 18.0985 9.18889 18.7182 8.09622 19.1875C7.00355 19.6569 5.67255 19.8915 4.10322 19.8915C3.61922 19.8915 3.15355 19.8439 2.70622 19.7485C2.25889 19.6532 1.85922 19.5029 1.50722 19.2975C1.15522 19.0922 0.876553 18.8245 0.67122 18.4945C0.465887 18.1645 0.36322 17.7575 0.36322 17.2735C0.36322 16.8482 0.498887 16.4669 0.77022 16.1295C1.04155 15.7922 1.42655 15.6235 1.92522 15.6235C2.35055 15.6235 2.69522 15.7409 2.95922 15.9755C3.22322 16.2102 3.35522 16.5329 3.35522 16.9435C3.35522 17.5155 3.05455 17.9115 2.45322 18.1315C2.51189 18.6742 2.69155 19.0592 2.99222 19.2865C3.29289 19.5139 3.67789 19.6275 4.14722 19.6275C4.89522 19.6275 5.56622 19.4589 6.16022 19.1215C6.75422 18.7842 7.30422 18.3295 7.81022 17.7575C8.31622 17.1855 8.79655 16.5255 9.25122 15.7775C9.70589 15.0295 10.1606 14.2412 10.6152 13.4125C11.0699 12.5839 11.5392 11.7442 12.0232 10.8935C12.5072 10.0429 13.0389 9.23252 13.6182 8.46252C14.1976 7.69252 14.8356 6.98852 15.5322 6.35052C16.2289 5.71252 17.0172 5.18818 17.8972 4.77752C17.5599 4.61618 17.0906 4.46218 16.4892 4.31552C15.8879 4.16885 15.1326 4.09552 14.2232 4.09552C12.9326 4.09552 11.7079 4.29718 10.5492 4.70052C9.39055 5.10385 8.38222 5.66118 7.52422 6.37252C6.66622 7.08385 5.98422 7.91985 5.47822 8.88052C4.97222 9.84118 4.71922 10.8789 4.71922 11.9935C4.71922 12.3602 4.76689 12.7049 4.86222 13.0275C4.95755 13.3502 5.09689 13.6325 5.28022 13.8745C5.46355 14.1165 5.70189 14.3072 5.99522 14.4465C6.28855 14.5859 6.63322 14.6555 7.02922 14.6555C7.57189 14.6555 8.04122 14.5015 8.43722 14.1935C8.83322 13.8855 9.16322 13.5005 9.42722 13.0385C9.69122 12.5765 9.88922 12.0705 10.0212 11.5205C10.1532 10.9705 10.2192 10.4535 10.2192 9.96952C10.2192 9.54418 10.1459 9.08952 9.99922 8.60552C9.85255 8.12152 9.67655 7.68152 9.47122 7.28552L9.69122 7.19752C9.89655 7.62285 10.0799 8.04452 10.2412 8.46252C10.4026 8.88052 10.4832 9.41952 10.4832 10.0795C10.4832 10.7835 10.3769 11.4619 10.1642 12.1145C9.95155 12.7672 9.63622 13.3429 9.21822 13.8415C8.80022 14.3402 8.28689 14.7399 7.67822 15.0405C7.06955 15.3412 6.36189 15.4915 5.55522 15.4915C5.04189 15.4915 4.57622 15.3999 4.15822 15.2165C3.74022 15.0332 3.38455 14.7802 3.09122 14.4575C2.79789 14.1349 2.57055 13.7609 2.40922 13.3355C2.24789 12.9102 2.16722 12.4482 2.16722 11.9495C2.16722 11.1282 2.34322 10.3545 2.69522 9.62852C3.04722 8.90252 3.52389 8.23885 4.12522 7.63752C4.72655 7.03618 5.42689 6.50085 6.22622 6.03152C7.02555 5.56218 7.87255 5.16252 8.76722 4.83252C9.66189 4.50252 10.5822 4.25318 11.5282 4.08452C12.4742 3.91585 13.3872 3.83152 14.2672 3.83152C15.1766 3.83152 16.0419 3.87918 16.8632 3.97452C17.6846 4.06985 18.3519 4.19085 18.8652 4.33752C19.1586 4.22018 19.4592 4.11752 19.7672 4.02952C20.0752 3.94152 20.3979 3.86818 20.7352 3.80952C21.4246 3.67752 22.1946 3.61152 23.0452 3.61152L23.0452 3.87552Z" fill="#aaaaaa" opacity="1" stroke="none"/>
<path clip-path="url(#TextBounds_2)" d="M15.4153 13.7611C15.2319 14.0611 15.0194 14.3778 14.7778 14.7111C14.5361 15.0444 14.2653 15.3444 13.9653 15.6111C13.6653 15.8778 13.3444 16.0986 13.0028 16.2736C12.6611 16.4486 12.2986 16.5361 11.9153 16.5361C11.4986 16.5361 11.0736 16.4111 10.6403 16.1611C10.3403 15.9944 10.0694 15.7444 9.82778 15.4111C9.58611 15.0778 9.36945 14.7278 9.17778 14.3611C8.98611 13.9944 8.81111 13.6361 8.65278 13.2861C8.49445 12.9361 8.35695 12.6611 8.24028 12.4611C7.85695 12.5944 7.47778 12.6944 7.10278 12.7611C6.72778 12.8278 6.34861 12.8611 5.96528 12.8611C5.41528 12.8611 4.86111 12.7944 4.30278 12.6611C3.74445 12.5278 3.26528 12.2694 2.86528 11.8861C2.54861 12.1028 2.23195 12.3694 1.91528 12.6861C1.59861 13.0028 1.32361 13.3194 1.09028 13.6361C1.00695 13.6361 0.96528 13.5778 0.96528 13.4611C1.24861 13.1278 1.53611 12.8194 1.82778 12.5361C2.11945 12.2528 2.42361 11.9944 2.74028 11.7611C2.20695 11.1778 1.94028 10.4528 1.94028 9.5861C1.94028 9.05277 2.04445 8.4986 2.25278 7.9236C2.46111 7.3486 2.72778 6.7861 3.05278 6.2361C3.37778 5.6861 3.73195 5.16527 4.11528 4.6736C4.49861 4.18194 4.87361 3.7611 5.24028 3.4111C5.84028 2.82777 6.51945 2.38194 7.27778 2.0736C8.03611 1.76527 8.81528 1.6111 9.61528 1.6111C9.69861 1.6111 9.75278 1.62777 9.77778 1.6611C9.80278 1.69444 9.81528 1.72777 9.81528 1.7611C9.81528 1.8111 9.79861 1.8361 9.76528 1.8361C9.68195 1.81944 9.60695 1.8111 9.54028 1.8111C9.47361 1.8111 9.41528 1.8111 9.36528 1.8111C8.96528 1.8111 8.56528 1.90694 8.16528 2.0986C7.76528 2.29027 7.39028 2.53194 7.04028 2.8236C6.69028 3.11527 6.37361 3.4236 6.09028 3.7486C5.80695 4.0736 5.56528 4.3611 5.36528 4.6111C5.13195 4.92777 4.88611 5.29444 4.62778 5.7111C4.36945 6.12777 4.13195 6.56527 3.91528 7.0236C3.69861 7.48194 3.51945 7.96527 3.37778 8.4736C3.23611 8.98194 3.16528 9.49444 3.16528 10.0111C3.16528 10.4444 3.24861 10.8694 3.41528 11.2861C3.98195 10.9028 4.52361 10.6486 5.04028 10.5236C5.55695 10.3986 5.98195 10.3361 6.31528 10.3361C6.49861 10.3361 6.69445 10.3486 6.90278 10.3736C7.11111 10.3986 7.33195 10.4611 7.56528 10.5611C7.79861 10.6611 8.04028 10.8153 8.29028 11.0236C8.54028 11.2319 8.79028 11.5194 9.04028 11.8861C9.64028 11.5861 10.1903 11.1736 10.6903 10.6486C11.1903 10.1236 11.6194 9.5486 11.9778 8.9236C12.3361 8.2986 12.6153 7.65277 12.8153 6.9861C13.0153 6.31944 13.1153 5.69444 13.1153 5.1111C13.1153 4.57777 13.0528 4.08194 12.9278 3.6236C12.8028 3.16527 12.6153 2.7861 12.3653 2.4861C12.2319 2.3361 12.0778 2.20694 11.9028 2.0986C11.7278 1.99027 11.5653 1.91944 11.4153 1.8861C11.3319 1.85277 11.2903 1.82777 11.2903 1.8111C11.2903 1.77777 11.3319 1.7611 11.4153 1.7611C11.5486 1.7611 11.7069 1.76527 11.8903 1.7736C12.0736 1.78194 12.2403 1.7861 12.3903 1.7861C12.4903 1.7861 12.6028 1.7986 12.7278 1.8236C12.8528 1.8486 12.9653 1.90277 13.0653 1.9861C13.3153 2.1861 13.5569 2.48194 13.7903 2.8736C14.0236 3.26527 14.1403 3.81944 14.1403 4.5361C14.1403 5.0361 14.0486 5.6236 13.8653 6.2986C13.6819 6.9736 13.3903 7.6611 12.9903 8.3611C12.5903 9.0611 12.0778 9.7361 11.4528 10.3861C10.8278 11.0361 10.0653 11.5861 9.16528 12.0361C9.26528 12.1861 9.38195 12.3819 9.51528 12.6236C9.64861 12.8653 9.79861 13.1236 9.96528 13.3986C10.1319 13.6736 10.3153 13.9528 10.5153 14.2361C10.7153 14.5194 10.9236 14.7861 11.1403 15.0361C11.6236 15.5861 12.1236 15.8611 12.6403 15.8611C12.7403 15.8611 12.8819 15.8444 13.0653 15.8111C13.2486 15.7778 13.4528 15.6903 13.6778 15.5486C13.9028 15.4069 14.1486 15.1861 14.4153 14.8861C14.6819 14.5861 14.9486 14.1694 15.2153 13.6361C15.2486 13.5861 15.2903 13.5778 15.3403 13.6111C15.3903 13.6444 15.4153 13.6944 15.4153 13.7611ZM8.14028 12.2861C8.02361 12.1028 7.90278 11.9153 7.77778 11.7236C7.65278 11.5319 7.50278 11.3569 7.32778 11.1986C7.15278 11.0403 6.94445 10.9111 6.70278 10.8111C6.46111 10.7111 6.16528 10.6611 5.81528 10.6611C5.39861 10.6611 4.99861 10.7319 4.61528 10.8736C4.23195 11.0153 3.85695 11.2028 3.49028 11.4361C3.77361 11.9028 4.17361 12.2194 4.69028 12.3861C5.20695 12.5528 5.71528 12.6361 6.21528 12.6361C6.84861 12.6361 7.49028 12.5194 8.14028 12.2861Z" fill="#aaaaaa" opacity="0" stroke="none"/>
</svg>
