<?xml version="1.0" encoding="UTF-8" standalone="no"?>
<!DOCTYPE svg PUBLIC "-//W3C//DTD SVG 1.1//EN" "http://www.w3.org/Graphics/SVG/1.1/DTD/svg11.dtd">
<!-- Created with Vectornator (http://vectornator.io/) -->
<svg height="100%" stroke-miterlimit="10" style="fill-rule:nonzero;clip-rule:evenodd;stroke-linecap:round;stroke-linejoin:round;" version="1.1" viewBox="0 0 32 32" width="100%" xml:space="preserve" xmlns="http://www.w3.org/2000/svg" xmlns:vectornator="http://vectornator.io" xmlns:xlink="http://www.w3.org/1999/xlink">
<defs>
<linearGradient gradientTransform="matrix(1 0 0 1 0 0)" gradientUnits="userSpaceOnUse" id="LinearGradient_2" x1="28.813" x2="6.77348" y1="11.0041" y2="27.3202">
<stop offset="0.0151573" stop-color="#d9d9d9"/>
<stop offset="0.985449" stop-color="#ababab"/>
</linearGradient>
<clipPath id="TextBounds">
<rect height="10.7961" width="9.7714" x="10.2138" y="15.0748"/>
</clipPath>
<linearGradient gradientTransform="matrix(0.731049 0 0 0.731049 2.44295 0.378815)" gradientUnits="userSpaceOnUse" id="LinearGradient_3" x1="25.7174" x2="15.1069" y1="19.8346" y2="29.9626">
<stop offset="0.0151573" stop-color="#d9d9d9"/>
<stop offset="0.985449" stop-color="#ababab"/>
</linearGradient>
</defs>
<g id="Untitled" vectornator:layerName="Untitled">
<path d="M0 0L32 0L32 32L0 32L0 0Z" fill="url(#LinearGradient)" fill-rule="nonzero" opacity="0" stroke="none"/>
<path d="M27.562 26.0571L17.17 8.98507L19.536 5.09706L17.828 4.05706L16 7.06206L14.17 4.05706L12.462 5.09706L14.828 8.98506L4.438 26.0571L2 26.0571L2 28.0571L30 28.0571L30 26.0571L27.562 26.0571ZM16 10.9071L25.22 26.0571L17 26.0571L17 23.0302L15 23.0231L15 26.0571L6.78 26.0571L16 10.9071Z" fill="url(#LinearGradient_2)" fill-rule="nonzero" opacity="1" stroke="none"/>
<path clip-path="url(#TextBounds)" d="M19.2363 16.8112C19.0462 16.8015 18.8573 16.8137 18.6697 16.8478C18.4821 16.8819 18.3103 16.9599 18.1543 17.0817C18.398 17.1987 18.599 17.3473 18.7574 17.5277C18.9158 17.708 18.995 17.9444 18.995 18.2368C18.995 18.4561 18.9377 18.6413 18.8232 18.7924C18.7087 18.9435 18.5661 19.0677 18.3955 19.1652C18.225 19.2627 18.041 19.3358 17.8436 19.3845C17.6462 19.4333 17.4647 19.4625 17.299 19.4723L17.299 19.4869C17.7425 19.4966 18.0824 19.5892 18.3188 19.7647C18.5552 19.9401 18.6733 20.196 18.6733 20.5323C18.6733 20.776 18.6051 20.9989 18.4686 21.2012C18.3322 21.4034 18.1555 21.5777 17.9386 21.7239C17.7218 21.8701 17.4793 21.9846 17.2112 22.0675C16.9432 22.1503 16.6751 22.1918 16.4071 22.1918C16.3047 22.1918 16.1975 22.1796 16.0854 22.1552C15.9733 22.1308 15.8722 22.0906 15.782 22.0346C15.6919 21.9785 15.6176 21.9067 15.5591 21.8189C15.5006 21.7312 15.4714 21.624 15.4714 21.4973C15.4714 21.3316 15.5213 21.1988 15.6212 21.0988C15.7211 20.9989 15.8539 20.949 16.0196 20.949C16.1269 20.949 16.2219 20.9709 16.3047 21.0148C16.3876 21.0586 16.451 21.1074 16.4948 21.161C16.412 21.2341 16.3328 21.3242 16.2572 21.4315C16.1817 21.5387 16.1439 21.6532 16.1439 21.7751C16.1439 21.8725 16.1744 21.9469 16.2353 21.998C16.2962 22.0492 16.3779 22.0748 16.4802 22.0748C16.6313 22.0748 16.7787 22.0248 16.9225 21.9249C17.0663 21.825 17.1942 21.6971 17.3063 21.5411C17.4184 21.3852 17.5085 21.2097 17.5768 21.0148C17.645 20.8198 17.6791 20.6273 17.6791 20.4372C17.6791 20.252 17.6487 20.0985 17.5877 19.9767C17.5268 19.8548 17.4452 19.7598 17.3428 19.6916C17.2405 19.6233 17.126 19.5795 16.9992 19.56C16.8725 19.5405 16.7434 19.5429 16.6118 19.5673L16.641 19.5015C17.0992 19.4284 17.4598 19.2663 17.723 19.0154C17.9862 18.7644 18.1177 18.4366 18.1177 18.0321C18.1177 17.8956 18.097 17.7701 18.0556 17.6556C18.0142 17.5411 17.9447 17.4351 17.8473 17.3376C17.5548 17.63 17.3038 17.9529 17.0943 18.3062C16.8847 18.6596 16.6837 19.0141 16.4912 19.3699C16.2987 19.7257 16.1037 20.0693 15.9063 20.4007C15.7089 20.7321 15.4774 21.0257 15.2118 21.2816C14.9462 21.5375 14.6319 21.7434 14.2688 21.8993C13.9057 22.0553 13.4634 22.1333 12.9419 22.1333C12.7811 22.1333 12.6264 22.1174 12.4777 22.0858C12.3291 22.0541 12.1963 22.0041 12.0793 21.9359C11.9623 21.8677 11.8697 21.7787 11.8015 21.6691C11.7333 21.5594 11.6991 21.4242 11.6991 21.2633C11.6991 21.122 11.7442 20.9953 11.8344 20.8832C11.9245 20.7711 12.0525 20.715 12.2182 20.715C12.3595 20.715 12.4741 20.754 12.5618 20.832C12.6495 20.91 12.6934 21.0172 12.6934 21.1537C12.6934 21.3437 12.5935 21.4753 12.3936 21.5484C12.4131 21.7288 12.4728 21.8567 12.5727 21.9322C12.6727 22.0078 12.8006 22.0456 12.9565 22.0456C13.2051 22.0456 13.4281 21.9895 13.6255 21.8774C13.8228 21.7653 14.0056 21.6142 14.1737 21.4242C14.3419 21.2341 14.5015 21.0148 14.6526 20.7662C14.8037 20.5177 14.9547 20.2557 15.1058 19.9803C15.2569 19.705 15.4129 19.426 15.5737 19.1433C15.7345 18.8606 15.9112 18.5913 16.1037 18.3355C16.2962 18.0796 16.5082 17.8457 16.7397 17.6337C16.9712 17.4217 17.2332 17.2474 17.5256 17.111C17.4135 17.0574 17.2575 17.0062 17.0577 16.9575C16.8579 16.9087 16.6069 16.8843 16.3047 16.8843C15.8759 16.8843 15.4689 16.9514 15.0839 17.0854C14.6989 17.2194 14.3638 17.4046 14.0787 17.641C13.7936 17.8774 13.567 18.1552 13.3988 18.4744C13.2307 18.7936 13.1466 19.1384 13.1466 19.5088C13.1466 19.6307 13.1625 19.7452 13.1941 19.8524C13.2258 19.9596 13.2721 20.0534 13.333 20.1339C13.394 20.2143 13.4732 20.2776 13.5706 20.3239C13.6681 20.3702 13.7826 20.3934 13.9142 20.3934C14.0945 20.3934 14.2505 20.3422 14.3821 20.2399C14.5137 20.1375 14.6233 20.0096 14.7111 19.8561C14.7988 19.7025 14.8646 19.5344 14.9084 19.3516C14.9523 19.1689 14.9742 18.9971 14.9742 18.8362C14.9742 18.6949 14.9499 18.5438 14.9011 18.383C14.8524 18.2222 14.7939 18.076 14.7257 17.9444L14.7988 17.9151C14.867 18.0565 14.9279 18.1966 14.9815 18.3355C15.0352 18.4744 15.062 18.6535 15.062 18.8728C15.062 19.1067 15.0266 19.3321 14.956 19.549C14.8853 19.7659 14.7805 19.9572 14.6416 20.1229C14.5027 20.2886 14.3321 20.4214 14.1299 20.5213C13.9276 20.6212 13.6925 20.6712 13.4244 20.6712C13.2538 20.6712 13.0991 20.6407 12.9602 20.5798C12.8213 20.5189 12.7031 20.4348 12.6056 20.3276C12.5082 20.2204 12.4326 20.0961 12.379 19.9548C12.3254 19.8134 12.2986 19.6599 12.2986 19.4942C12.2986 19.2213 12.3571 18.9642 12.4741 18.7229C12.591 18.4817 12.7494 18.2612 12.9492 18.0613C13.1491 17.8615 13.3818 17.6836 13.6474 17.5277C13.913 17.3717 14.1945 17.2389 14.4917 17.1292C14.789 17.0196 15.0949 16.9367 15.4092 16.8807C15.7236 16.8246 16.0269 16.7966 16.3194 16.7966C16.6215 16.7966 16.9091 16.8125 17.182 16.8441C17.4549 16.8758 17.6767 16.916 17.8473 16.9648C17.9447 16.9258 18.0446 16.8917 18.147 16.8624C18.2493 16.8332 18.3566 16.8088 18.4686 16.7893C18.6977 16.7454 18.9536 16.7235 19.2363 16.7235L19.2363 16.8112Z" fill="url(#LinearGradient_3)" opacity="1" stroke="none"/>
</g>
</svg>
