<svg width="1137" height="545" viewBox="0 0 1137 545" fill="none" xmlns="http://www.w3.org/2000/svg">
<path d="M509.795 453.264L320.024 123.259L363.23 48.1034L332.04 28L298.658 86.0871L265.24 28L234.05 48.1034L277.256 123.259L87.521 453.264H43V491.925H554.316V453.264H509.795ZM298.658 160.412L467.027 453.264H316.919V394.754L280.397 394.617V453.264H130.289L298.658 160.412Z" fill="#BEBEBE"/>
<path d="M311.006 311.566C323.289 308.598 331.298 301.249 331.298 287.119C331.298 266.911 317.148 258.856 295.921 258.856H261.211V369.081H298.057C320.352 369.081 336.105 359.33 336.105 336.861C336.105 319.479 324.089 313.261 311.006 312.273V311.566ZM293.384 277.227C301.262 277.227 307.268 281.325 307.268 290.793C307.268 300.543 300.994 304.641 293.384 304.641H284.573V277.227H293.384ZM284.573 350.004V323.013H297.657C306.468 323.013 312.341 327.393 312.341 336.295C312.341 346.47 306.468 350.004 297.524 350.004H284.573Z" fill="#BEBEBE"/>
<path fill-rule="evenodd" clip-rule="evenodd" d="M847.233 313.339C776.751 313.339 706.464 345.116 706.464 345.116C706.464 345.116 825.84 43.2657 826.097 42.6715C829.757 33.7475 835.308 28 843.107 28H986.37C994.168 28 999.953 33.7475 1003.38 42.6715C1003.61 43.2771 1123 345.116 1123 345.116C1123 345.116 1065.71 313.339 982.23 313.339L929.089 160.706C927.1 153.325 921.29 148.308 914.732 148.308C908.174 148.308 902.365 153.325 900.375 160.706L847.233 313.339ZM841.911 443.312C841.918 443.318 841.925 443.324 841.932 443.33L841.909 443.319C841.91 443.317 841.91 443.314 841.911 443.312ZM821.156 350.231C811.269 380.875 818.192 423.169 841.911 443.312C842.019 442.939 842.127 442.583 842.23 442.24C842.444 441.538 842.642 440.884 842.793 440.226C845.765 427.428 856.97 419.301 871.134 419.684C884.936 420.058 892.262 426.543 894.394 441.026C895.184 446.405 895.259 451.897 895.334 457.36C895.342 457.931 895.349 458.502 895.358 459.072C895.54 471.455 898.987 482.899 906.233 493.244C913.095 503.046 922.099 510.501 934.427 515.62C934.295 515.208 934.186 514.86 934.091 514.561C933.834 513.746 933.688 513.286 933.531 512.826C924.458 486.994 930.991 469.236 955.135 454.092C957.585 452.555 960.055 451.043 962.524 449.532C967.972 446.196 973.418 442.863 978.655 439.266C997.685 426.201 1009.65 408.966 1012.46 386.653C1013.62 377.491 1012.76 368.49 1009.45 359.574C1008.04 360.367 1006.7 361.156 1005.4 361.924C1002.62 363.562 1000.01 365.1 997.265 366.357C961.973 382.473 924.662 384.467 886.671 379.134C862.062 375.679 838.303 369.557 821.156 350.231Z" fill="#BEBEBE"/>
<path d="M555.731 218.112V215.453L561.944 209.7C562.472 209.189 562.916 208.728 563.273 208.319C563.637 207.91 563.913 207.51 564.1 207.117C564.288 206.72 564.381 206.291 564.381 205.831C564.381 205.319 564.265 204.879 564.032 204.51C563.799 204.135 563.481 203.848 563.077 203.649C562.674 203.444 562.217 203.342 561.705 203.342C561.171 203.342 560.705 203.45 560.308 203.666C559.91 203.882 559.603 204.191 559.387 204.595C559.171 204.998 559.063 205.478 559.063 206.035H555.56C555.56 204.893 555.819 203.902 556.336 203.061C556.853 202.22 557.577 201.569 558.509 201.109C559.441 200.649 560.515 200.419 561.731 200.419C562.981 200.419 564.069 200.64 564.995 201.083C565.927 201.521 566.651 202.129 567.168 202.907C567.685 203.686 567.944 204.578 567.944 205.583C567.944 206.242 567.813 206.893 567.552 207.535C567.296 208.177 566.839 208.89 566.18 209.674C565.521 210.453 564.592 211.387 563.393 212.478L560.845 214.975V215.095H568.174V218.112H555.731ZM577.692 218.495C576.226 218.49 574.965 218.129 573.908 217.413C572.857 216.697 572.047 215.66 571.479 214.302C570.916 212.944 570.638 211.311 570.644 209.402C570.644 207.498 570.925 205.876 571.487 204.535C572.055 203.194 572.865 202.174 573.916 201.475C574.973 200.771 576.232 200.419 577.692 200.419C579.152 200.419 580.408 200.771 581.459 201.475C582.516 202.18 583.328 203.203 583.896 204.544C584.465 205.879 584.746 207.498 584.74 209.402C584.74 211.316 584.456 212.953 583.888 214.311C583.325 215.669 582.519 216.706 581.467 217.421C580.416 218.137 579.158 218.495 577.692 218.495ZM577.692 215.436C578.692 215.436 579.49 214.933 580.087 213.927C580.683 212.921 580.979 211.413 580.973 209.402C580.973 208.078 580.837 206.975 580.564 206.095C580.297 205.214 579.916 204.552 579.422 204.109C578.933 203.666 578.357 203.444 577.692 203.444C576.697 203.444 575.902 203.941 575.305 204.936C574.709 205.93 574.408 207.419 574.402 209.402C574.402 210.742 574.536 211.862 574.803 212.76C575.075 213.652 575.459 214.322 575.953 214.771C576.447 215.214 577.027 215.436 577.692 215.436ZM587.371 218.112V215.453L593.585 209.7C594.113 209.189 594.556 208.728 594.914 208.319C595.278 207.91 595.553 207.51 595.741 207.117C595.928 206.72 596.022 206.291 596.022 205.831C596.022 205.319 595.906 204.879 595.673 204.51C595.44 204.135 595.121 203.848 594.718 203.649C594.315 203.444 593.857 203.342 593.346 203.342C592.812 203.342 592.346 203.45 591.948 203.666C591.55 203.882 591.244 204.191 591.028 204.595C590.812 204.998 590.704 205.478 590.704 206.035H587.201C587.201 204.893 587.46 203.902 587.977 203.061C588.494 202.22 589.218 201.569 590.15 201.109C591.082 200.649 592.156 200.419 593.371 200.419C594.621 200.419 595.71 200.64 596.636 201.083C597.568 201.521 598.292 202.129 598.809 202.907C599.326 203.686 599.585 204.578 599.585 205.583C599.585 206.242 599.454 206.893 599.193 207.535C598.937 208.177 598.479 208.89 597.82 209.674C597.161 210.453 596.232 211.387 595.033 212.478L592.485 214.975V215.095H599.815V218.112H587.371ZM601.849 215.044V212.137L609.136 200.657H611.642V204.68H610.159L605.565 211.95V212.086H615.921V215.044H601.849ZM610.227 218.112V214.157L610.296 212.87V200.657H613.756V218.112H610.227Z" fill="#BEBEBE"/>
<path d="M616.933 271.814L589.339 241.712L596.613 233.777L636.626 277.426L596.613 321.074L589.339 313.139L616.933 283.037H554.316V271.814H616.933Z" fill="#BEBEBE"/>
</svg>
