<svg stroke-miterlimit="10"  viewBox="0 0 24 24" xml:space="preserve" xmlns="http://www.w3.org/2000/svg" xmlns:vectornator="http://vectornator.io">
<defs>
  <linearGradient gradientTransform="translate(-5.822 -6.122) scale(1.46862)" gradientUnits="userSpaceOnUse" id="a" x1="6.72" x2="12.135" y1="16.29" y2="12.339">
    <stop offset="0"/><stop offset="1" stop-color="#3d3d3d"/>
  </linearGradient>
  <linearGradient gradientTransform="translate(-5.547 -6.025) scale(1.45455)" gradientUnits="userSpaceOnUse" id="b" x1="12.064" x2="5.927" y1="12.392" y2="16.369">
    <stop offset="0" stop-color="#f9fdff"/>
    <stop offset="1" stop-color="#fff" stop-opacity=".899"/>
  </linearGradient>
</defs>
      <g vectornator:layerName="lay-1"><path d="M0 0h24v24H0V0Z" fill="#fff"/>
      <path d="M14.277 4.159c-1.575-.06-1.725-.034-2.867.559-.689.336-1.513.963-1.888 1.398-.372.442-.606.65-.839.7-.173.036-.338-.056-.699-.14a3.632 3.632 0 0 0-.49-.07C5.773 6.471 3.972 7.653 3.72 9.193c-.099.633-.192.844-.98 1.259-.511.277-1.253.854-1.608 1.328-1.508 1.996-1.473 4.692-.105 6.502.983 1.3 2.437 1.447 2.54 1.477.918.218 2.385.192 8.823.133 6.177-.05 7.512.038 8.25-.18.074-.022.564-.128.957-.313.337-.159.902-.61.947-.642.077-.057 1.1-1.208 1.36-2.637.257-1.408-.058-2.29-.303-2.905-.28-.75-1.059-1.439-1.317-1.714-.39-.415-1.843-1.082-1.843-1.082s-.148-1.14-.18-1.36c-.19-1.04-.454-1.976-1.194-2.777-.302-.328-1.136-1.2-2.189-1.629-1.167-.475-2.548-.492-2.6-.494Z" fill="url(#a)"/><path d="M9.085 8.697a.601.601 0 0 1-.673-.03c-1.306-1.018-2.872.1-3.028 2.078-.058.588-.156.686-1.092 1.038-1.462.548-2.184 1.567-2.184 3.094 0 1.234.43 2.076 1.424 2.82.546.391.8.41 8.19.47 5.44.039 7.78-.02 8.17-.177 1.365-.567 2.3-2.447 1.91-3.877-.292-1.096-.877-1.742-2.125-2.33l-1.092-.529-.117-1.175c-.136-1.37-.468-2.095-1.384-2.976-1.15-1.116-2.828-1.488-4.31-.96-1.092.392-1.955 1.095-2.479 1.603m3.478 1.313c.18.181.322.332.432.467.11.136.19.256.248.378.057.12.092.243.113.38.02.138.026.293.026.479 0 .166-.007.31-.025.44a1.424 1.424 0 0 1-.247.66 2.378 2.378 0 0 1-.254.31l-.132.137-.132.137-.131.137-.132.137.483.49.482.489.483.49.482.49.347.347.346.348.346.347.347.348.07.07.07.07.07.071.07.07.071.072.071.072.076.07.076.07-.166.157-.165.159-.161.156-.161.157-.156.161-.156.162-.156.162-.156.161-.483-.485-.482-.484-.483-.485-.482-.484-.488-.485-.488-.485-.487-.485-.488-.484-.175.152-.175.151-.176.152-.175.152a2.977 2.977 0 0 1-.729.498 1.458 1.458 0 0 1-.697.14 1.685 1.685 0 0 1-.716-.222 3.99 3.99 0 0 1-.783-.592 8.159 8.159 0 0 1-.475-.468 1.688 1.688 0 0 1-.264-.364 1.164 1.164 0 0 1-.114-.38 3.8 3.8 0 0 1-.025-.511c0-.216.004-.382.036-.538a1.32 1.32 0 0 1 .21-.476c.116-.174.286-.376.536-.644.25-.269.578-.604 1.012-1.045.42-.426.745-.752 1.009-1.003.263-.25.466-.425.639-.546.173-.121.317-.19.463-.227.147-.037.297-.045.482-.045.171 0 .314.008.443.03s.244.06.36.12c.115.06.232.142.363.255.131.113.277.256.453.437Z" fill="url(#b)"/><path d="M5.245 3.47c-.194 0-.35.232-.35.519 0 .286.156.519.35.519h2.572c.194 0 .35-.233.35-.52 0-.286-.156-.518-.35-.518H5.245ZM2.43.674c-.113-.073-.411-.2-.739.097-.314.286-.256.623-.117.742.216.184 1.535 1.091 1.535 1.091-.42.362-1.21 1-1.367 1.22-.158.221-.122.558.125.77.241.208.538.34.763.164.153-.12 2.103-1.923 2.103-1.923s.125-.167.117-.31c-.008-.157-.212-.283-.212-.283S2.503.722 2.431.674Z"/>
      </g>
    </svg>
